<?xml version="1.0" standalone="no"?>
<!DOCTYPE svg PUBLIC "-//W3C//DTD SVG 20010904//EN"
 "http://www.w3.org/TR/2001/REC-SVG-20010904/DTD/svg10.dtd">
<svg version="1.0" xmlns="http://www.w3.org/2000/svg"
 width="230.000000pt" height="230.000000pt" viewBox="0 0 230.000000 230.000000"
 preserveAspectRatio="xMidYMid meet">
<metadata>
Created by potrace 1.14, written by Peter Selinger 2001-2017
</metadata>
<g transform="translate(0.000000,230.000000) scale(0.100000,-0.100000)"
fill="#000000" stroke="none">
<path d="M861 2174 c-325 -58 -601 -264 -749 -559 -37 -74 -76 -182 -87 -244
-3 -14 -7 -37 -11 -51 -10 -42 -12 -245 -3 -302 5 -29 11 -67 13 -84 7 -40 63
-198 89 -249 118 -234 349 -433 596 -514 130 -43 325 -64 441 -47 195 27 364
93 505 198 87 65 438 413 492 488 186 257 182 444 -14 703 -66 88 -404 420
-488 479 -230 163 -515 230 -784 182z m401 -274 c127 -64 161 -92 348 -279
164 -164 181 -184 227 -260 129 -213 78 -377 -203 -657 -211 -211 -313 -288
-426 -324 -21 -6 -38 -16 -38 -20 0 -5 -6 -7 -13 -4 -8 3 -27 0 -43 -6 -59
-23 -108 -22 -197 3 -291 85 -507 305 -583 594 -19 74 -22 109 -20 223 3 151
17 213 71 327 115 246 333 419 585 467 60 11 72 10 150 -12 47 -13 111 -36
142 -52z"/>
</g>
</svg>
