<?xml version="1.0" standalone="no"?>
<!DOCTYPE svg PUBLIC "-//W3C//DTD SVG 20010904//EN"
 "http://www.w3.org/TR/2001/REC-SVG-20010904/DTD/svg10.dtd">
<svg version="1.0" xmlns="http://www.w3.org/2000/svg"
 width="700.000000pt" height="700.000000pt" viewBox="0 0 700.000000 700.000000"
 preserveAspectRatio="xMidYMid meet">
<metadata>
Created by potrace 1.14, written by Peter Selinger 2001-2017
</metadata>
<g transform="translate(0.000000,700.000000) scale(0.100000,-0.100000)"
fill="#000000" stroke="none">
<path d="M1585 5688 c-5 -13 -1038 -3761 -1050 -3810 l-7 -28 1516 0 1515 0
12 43 c6 23 92 341 190 706 98 366 179 671 179 678 0 11 -129 13 -686 13 -649
0 -686 1 -682 18 246 892 648 2371 648 2380 0 18 -1629 17 -1635 0z m1201
-345 c-4 -16 -149 -553 -322 -1195 -172 -642 -314 -1172 -314 -1178 0 -7 221
-10 685 -10 377 0 685 -3 685 -7 0 -6 -154 -552 -201 -715 l-20 -68 -1169 0
c-644 0 -1170 3 -1170 7 0 10 871 3177 877 3186 2 4 218 7 480 7 l475 0 -6
-27z"/>
<path d="M3436 5151 c-4 -7 -353 -1291 -381 -1403 l-7 -28 686 0 c480 0 686
-3 686 -11 0 -6 -146 -546 -325 -1200 -179 -654 -325 -1192 -325 -1195 0 -5
1631 5 1637 10 4 3 1053 3810 1053 3823 0 11 -262 13 -1509 13 -847 0 -1512
-4 -1515 -9z m2594 -330 c0 -5 -196 -720 -435 -1590 -239 -869 -435 -1583
-435 -1586 0 -3 -216 -5 -481 -5 -453 0 -480 1 -475 18 3 9 147 542 320 1183
172 641 317 1176 321 1188 l6 21 -691 0 c-550 0 -691 3 -687 13 2 6 51 182
108 390 l103 377 1173 0 c693 0 1173 -4 1173 -9z"/>
</g>
</svg>
